#!OML:ASF F:\VICON\USERDATA\INSTALL\rory3\rory3.ASF
:FULLY-SPECIFIED
:DEGREES
90
root 0.6394189743450989 17.760721670266392 38.01445155359975 -3.4284723793476894 -6.210712488586216 -2.6803290399054016
lfemur -18.752664644483282 -2.803459943878329 -20.031878717355102
ltibia 27.717589127557197
lfoot -5.895107693289678 -1.2270072631901217
ltoes 2.3582701801647423
rfemur -1.4554645752283655 2.5704800103912753 24.833373200871307
rtibia 56.386781490974684
rfoot 10.722296504985373 -0.08526986225888145
rtoes 7.2799731783851875
lowerback 9.304650286271885 2.8073965194418196 2.440485833838447
upperback 0.37731971741481907 3.9996203414284177 0.5755835991758711
thorax -4.787724072040402 1.93839619853724 -1.2964712397510216
lowerneck -16.292171242853048 -3.031560336756309 -2.023745727696355
upperneck 20.355523792630425 -4.034666206914164 1.6039515703429212
head 9.150204602444441 -1.870253929161871 0.3485253996319939
lclavicle -2.789781479612108e-15 1.3859692566053511e-16
lhumerus -38.281420282246465 10.410854113619859 79.11533370224564
lradius 17.262007720644252
lwrist 0.5148207614394362
lhand -26.94745479918848 23.443023110659208
lfingers 7.12502
lthumb -0.36922738715924536 53.40188949527989
rclavicle -2.7897814796121075e-15 1.3859692566053511e-16
rhumerus -26.12594831334669 -15.394717720210487 -81.3354665811984
rradius 28.264082717775572
rwrist 4.299457963954242
rhand -17.729310389095957 23.69934226641208
rfingers 7.12502
rthumb 8.531537969097421 -6.107479219889469
91
root 0.6808198186392931 17.812743189964618 39.373578965865 -3.7645204281969233 -6.144509325538305 -1.519794379418543
lfemur -15.478403955085476 -2.843823882489932 -21.495746594216023
ltibia 28.210045054335918
lfoot -7.4176175924765255 0.06265672716080917
ltoes 2.5999044610246123
rfemur -6.190732338551664 1.6546907073091037 23.431300324727804
rtibia 63.36951242730488
rfoot 10.616298786450667 -2.7799634761179974
rtoes 10.135377138755723
lowerback 9.59356464782774 2.6433816714160807 1.5236187306469404
upperback 0.5141985936687534 3.6796585143034544 0.4473982665413674
thorax -4.835112708554785 1.7967983028881969 -0.7786511540206152
lowerneck -16.291518443203497 -2.926069615690704 -2.0838058847416883
upperneck 20.341577991249917 -3.865372434591522 1.547755785927237
head 9.145667648254934 -1.8029823671943985 0.37192453702555994
lclavicle -2.2529227349541946e-15 6.341728043067882e-16
lhumerus -37.025668844149656 9.22561752264243 79.89438519830536
lradius 18.235367892187647
lwrist 1.9886216232400988
lhand -28.00063659120181 22.556951153314653
lfingers 7.12502
lthumb -1.3864044726600608 52.5071766656472
rclavicle -2.2529227349541946e-15 6.341728043067882e-16
rhumerus -26.388565026832037 -15.760431135478647 -81.24158701583227
rradius 27.781867542286733
rwrist 5.4665770539095195
rhand -17.47924095625294 23.47289297871123
rfingers 7.12502
rthumb 8.772875743435115 -6.325833283052346
92
root 0.718691485135815 17.84790809469451 40.83664785849672 -3.9763949972063215 -5.81056225145674 -0.6123965731002003
lfemur -12.363720807706061 -3.0125465874788078 -22.715911018424023
ltibia 28.076384551639478
lfoot -9.018439106063457 1.186189881810062
ltoes 2.5756360431989678
rfemur -10.89271861459408 0.7540009015138449 22.51244635115771
rtibia 68.11728740000373
rfoot 6.7607946173547315 -5.052208440671937
rtoes 10.697849471230272
lowerback 9.800129280575959 2.3437382971321576 0.7641090311596779
upperback 0.6606184650233177 3.1952362472067186 0.4033257466654745
thorax -4.834944661123535 1.5726816416409546 -0.26835562628903775
lowerneck -16.258049874614937 -2.814268641944652 -2.1739946462886235
upperneck 20.369588143539787 -3.681582247462684 1.4696080367266422
head 9.149213728666027 -1.731673075498047 0.3953406399032896
lclavicle -1.844386297299371e-15 1.0101200804991219e-15
lhumerus -35.412686234881534 7.853478730917925 80.64157627058081
lradius 19.092623147719436
lwrist 2.8884371421287955
lhand -28.74320488462079 21.385795050602432
lfingers 7.12502
lthumb -2.103601650681872 51.33220698761783
rclavicle -1.8443862972993704e-15 1.0101200804991219e-15
rhumerus -26.60540220588131 -16.117199160596197 -81.19379133430348
rradius 27.37411570161888
rwrist 6.310126818720383
rhand -17.23530996369917 23.088630236451746
rfingers 7.12502
rthumb 9.008276656203947 -6.7008054738528395
93
root 0.7509303125863824 17.864068727494793 42.32695504313467 -4.078807397401363 -5.1907198983232465 0.03710785430710839
lfemur -9.552659342366848 -3.25727484687853 -23.679853440361796
ltibia 27.903400308877412
lfoot -10.55175455723904 2.0140793218927895
ltoes 2.448214497735903
rfemur -15.392582940988287 -0.029166188527149473 22.050734113465413
rtibia 70.2641252639068
rfoot 1.48414102132476 -5.990085074228477
rtoes 9.67374618318903
lowerback 9.9580390705027 1.9279753434330122 0.17889194826343724
upperback 0.7738310239878032 2.5771846095195183 0.45150624477919243
thorax -4.829361429982309 1.2799806884321228 0.23184263122851145
lowerneck -16.2120365592072 -2.7265233480046276 -2.326364895804672
upperneck 20.44219678899538 -3.5299477442768756 1.429758547108744
head 9.166067918903362 -1.6739374956465114 0.43372747628850195
lclavicle -1.549517654153052e-15 1.2809489589092012e-15
lhumerus -33.53116151261348 6.238664555119444 81.28880996483032
lradius 19.922234338076635
lwrist 3.330819511648243
lhand -28.95213334089529 20.601527884119516
lfingers 7.12502
lthumb -2.305413964743189 50.55032247730503
rclavicle -1.549517654153052e-15 1.2809489589092012e-15
rhumerus -26.93247495503681 -16.40616672889621 -81.13206103506694
rradius 27.14717957751172
rwrist 6.56657642976031
rhand -17.017701517069163 22.69928499315402
rfingers 7.12502
rthumb 9.218260575224948 -7.081112553066356
94
root 0.7669179423641757 17.86182666604681 43.53883833580186 -4.064616537821865 -4.381939093811752 0.5178882344061511
lfemur -7.083188440821504 -3.5358923856095505 -24.48430330601015
ltibia 27.755240320847005
lfoot -11.937398570840962 2.6144800915427844
ltoes 2.371501741460331
rfemur -19.521662678238982 -0.6303099868178066 21.86118582361268
rtibia 69.49699516665163
rfoot -3.3397583012093923 -6.017701236594771
rtoes 7.811117787550515
lowerback 10.098845781692301 1.444756126380411 -0.35258356294046345
upperback 0.8455505858368026 1.8774056281922578 0.5540264718661185
thorax -4.836215952661542 0.9458227506866661 0.735557969595586
lowerneck -16.20264640102917 -2.686864907573686 -2.5734129562626284
upperneck 20.50718489922204 -3.4449362913987995 1.480429722325832
head 9.186467482406682 -1.643081377622118 0.501295070793226
lclavicle -1.3964171863500033e-15 1.4212512120965956e-15
lhumerus -31.491247672148386 4.33094782872513 81.85315933347277
lradius 20.859811242182182
lwrist 3.734764763762291
lhand -28.785052830339353 20.391444598638113
lfingers 7.12502
lthumb -2.1440684169622557 50.3471441894818
rclavicle -1.396417186350003e-15 1.4212512120965956e-15
rhumerus -27.3804782109915 -16.40942110529427 -81.10443441273586
rradius 27.141732868261656
rwrist 6.200782844212209
rhand -16.87395132754861 22.415856653004376
rfingers 7.12502
rthumb 9.35695912676523 -7.358240147924025
95
root 0.7628618737554897 17.84808638871658 44.37805008944416 -3.9136511078189242 -3.512611353114536 0.9701387293330312
lfemur -4.74285289483046 -3.7444558699478065 -25.26622866855999
ltibia 27.22236550902321
lfoot -13.107351224690158 3.0515301984296164
ltoes 2.395121031493266
rfemur -23.066357640089628 -0.9794458939609614 21.652433649364397
rtibia 65.89782688116678
rfoot -6.735058846925994 -6.1971412291913675
rtoes 5.706530627103097
lowerback 10.205618948085709 0.9570025652915253 -0.9570028536997153
upperback 0.8888854934199806 1.1641972027971101 0.6581011242990357
thorax -4.839466346414847 0.6059062171059555 1.2583334146643548
lowerneck -16.25415015433032 -2.696818552843716 -2.88930298864568
upperneck 20.510839836383827 -3.4317746585280435 1.6279821281793887
head 9.195848924344562 -1.6399073285891517 0.5956033865388106
lclavicle -1.346367883833772e-15 1.4668601300340247e-15
lhumerus -29.36778430936621 2.2228267747227797 82.31716134614413
lradius 21.990419818089066
lwrist 4.40743309055933
lhand -28.488318731840657 20.580599684523825
lfingers 7.12502
lthumb -1.8574876450413822 50.54467923124713
rclavicle -1.346367883833772e-15 1.4668601300340247e-15
rhumerus -27.865317843434628 -16.11799416496866 -81.12247597777643
rradius 27.263851562218434
rwrist 5.542681276087254
rhand -16.801616973598648 22.205032913413522
rfingers 7.12502
rthumb 9.426738744735621 -7.5655381241576105
96
root 0.7411742954797325 17.82921553226485 45.013382872954566 -3.61231879516101 -2.723574821937194 1.431532165973163
lfemur -2.3751525746651625 -3.7980872930049046 -26.127877965854772
ltibia 25.664996803865623
lfoot -14.123526563791312 3.2470071992290874
ltoes 2.252183496306882
rfemur -25.95730376581188 -0.8847441895887123 21.113297933690944
rtibia 59.37690912709269
rfoot -8.630721845567331 -7.390768157756087
rtoes 3.7128315019403892
lowerback 10.217101206267467 0.5008069194981772 -1.6979335113741805
upperback 0.9075489079542969 0.4795815673287891 0.7263775308455919
thorax -4.816069793752571 0.2817917266097465 1.765272304776669
lowerneck -16.35763743690496 -2.73344274954336 -3.1998153930815807
upperneck 20.43023601595459 -3.4635434622685226 1.8192013704374417
head 9.182533795420639 -1.6520925118749425 0.6939941441802423
lclavicle -1.506525327564204e-15 1.3189191532713787e-15
lhumerus -27.248285681423525 0.07141488806736529 82.60129744366441
lradius 23.270678200157054
lwrist 5.309626815377269
lhand -28.206978048415998 20.978404495451407
lfingers 7.12502
lthumb -1.585765814915197 50.949331320364166
rclavicle -1.506525327564204e-15 1.3189191532713787e-15
rhumerus -28.35576897619714 -15.779925989110716 -81.17748330632423
rradius 27.33325527489961
rwrist 4.931563539013367
rhand -16.757288251706235 22.057324040174613
rfingers 7.12502
rthumb 9.469500402791057 -7.710245950977112
